<?xml version="1.0" standalone="no"?>
<!DOCTYPE svg PUBLIC "-//W3C//DTD SVG 20010904//EN"
 "http://www.w3.org/TR/2001/REC-SVG-20010904/DTD/svg10.dtd">
<svg version="1.0" xmlns="http://www.w3.org/2000/svg"
 width="500.000000pt" height="500.000000pt" viewBox="0 0 500.000000 500.000000"
 preserveAspectRatio="xMidYMid meet">
<metadata>
Created by potrace 1.14, written by Peter Selinger 2001-2017
</metadata>
<g transform="translate(0.000000,500.000000) scale(0.100000,-0.100000)"
fill="#000000" stroke="none">
<path d="M953 3630 c-274 -34 -480 -203 -558 -455 -40 -127 -47 -232 -42 -581
4 -281 7 -328 25 -394 55 -203 158 -337 324 -422 117 -59 188 -73 373 -72 143
1 170 4 248 28 89 27 181 67 192 85 3 6 -8 55 -25 111 l-31 100 -37 -16 c-147
-62 -228 -78 -365 -72 -117 6 -192 30 -263 84 -25 19 -50 32 -56 28 -7 -4 -8
-3 -4 5 4 6 -4 24 -17 41 -37 43 -77 133 -89 198 -6 32 -12 62 -14 69 -2 8
-22 11 -59 10 l-55 -3 0 306 0 305 56 0 57 0 19 68 c10 38 25 82 34 98 8 16
12 34 9 40 -4 5 -2 8 3 7 5 -2 25 16 43 38 71 87 138 127 255 150 124 24 272
5 401 -51 31 -14 61 -25 67 -25 11 0 53 116 60 160 1 8 5 21 10 28 11 19 -14
35 -109 71 -150 57 -309 78 -452 61z"/>
<path d="M1277 2863 c-9 -8 -9 -306 -1 -327 7 -17 39 -22 49 -7 3 5 1 12 -5
16 -6 4 -10 68 -10 166 0 126 -3 159 -13 159 -8 0 -17 -3 -20 -7z"/>
<path d="M4016 2855 c-7 -20 3 -45 19 -45 16 0 26 25 19 45 -4 8 -12 15 -19
15 -7 0 -15 -7 -19 -15z"/>
<path d="M778 2839 c-16 -9 -18 -27 -18 -152 0 -98 4 -147 12 -155 16 -16 80
-16 96 0 16 16 15 65 -2 71 -19 7 -26 -1 -26 -30 0 -16 -6 -23 -20 -23 -20 0
-20 5 -18 133 3 109 6 132 18 132 10 0 16 -13 18 -42 3 -35 7 -43 23 -43 16 0
19 7 19 50 0 38 -4 52 -19 60 -25 13 -61 12 -83 -1z"/>
<path d="M1806 2834 c-13 -12 -15 -40 -13 -157 l2 -142 26 -12 c20 -10 34 -10
58 -2 29 10 32 15 29 48 -4 44 -31 51 -36 9 -2 -20 -9 -28 -23 -28 -16 0 -19
7 -19 50 0 48 1 51 30 57 40 7 40 33 0 33 l-31 0 3 63 c2 47 7 62 18 62 10 0
16 -12 18 -32 2 -25 8 -33 23 -33 28 0 28 75 0 90 -28 15 -67 12 -85 -6z"/>
<path d="M2981 2836 c-8 -10 -9 -16 -1 -21 6 -4 10 -61 10 -151 0 -137 1 -144
20 -144 18 0 20 7 20 55 0 69 16 72 25 5 8 -59 33 -81 60 -53 15 14 15 17 1
25 -19 11 -32 74 -18 91 9 10 17 114 13 169 -2 26 -35 40 -65 28 -16 -6 -27
-6 -31 0 -9 14 -21 12 -34 -4z m91 -42 c2 -9 1 -43 0 -75 -3 -50 -7 -59 -23
-59 -17 0 -19 8 -19 68 0 38 3 72 7 75 12 13 31 7 35 -9z"/>
<path d="M2507 2813 c-4 -3 -7 -15 -7 -25 0 -10 -4 -18 -10 -18 -5 0 -10 -9
-10 -20 0 -11 5 -20 10 -20 6 0 10 -37 9 -96 -1 -53 3 -100 9 -106 5 -5 24
-10 42 -10 41 -1 60 22 60 74 0 31 -4 38 -20 38 -17 0 -20 -7 -20 -41 0 -33
-3 -40 -17 -37 -16 3 -18 16 -18 93 l0 90 33 1 c18 1 35 4 38 7 13 13 -9 27
-42 27 -30 0 -34 3 -34 25 0 24 -10 32 -23 18z"/>
<path d="M3860 2796 c0 -13 -7 -27 -15 -30 -12 -4 -14 -10 -5 -25 5 -11 10
-56 10 -101 0 -103 8 -120 61 -120 32 0 41 4 48 23 14 36 8 81 -11 85 -13 2
-17 -5 -20 -35 -2 -26 -8 -38 -18 -38 -12 0 -15 17 -15 90 l0 90 30 0 c20 1
31 6 33 18 3 13 -4 17 -32 17 -32 0 -36 3 -36 25 0 16 -6 25 -15 25 -9 0 -15
-9 -15 -24z"/>
<path d="M946 2748 c-20 -29 -20 -64 0 -72 23 -9 22 -9 26 27 4 46 32 43 36
-4 3 -32 -1 -39 -32 -57 -40 -24 -54 -61 -38 -97 10 -22 18 -24 67 -24 53 1
76 11 55 24 -6 3 -10 47 -10 100 0 72 -4 97 -16 109 -23 24 -70 20 -88 -6z
m62 -160 c-2 -21 -8 -33 -18 -33 -19 0 -25 32 -10 50 20 24 31 17 28 -17z"/>
<path d="M1107 2761 c-1 -3 -1 -59 1 -123 3 -108 5 -118 22 -118 18 0 20 9 22
102 3 89 5 103 21 106 13 3 17 -3 17 -28 0 -25 4 -31 18 -28 20 4 28 48 13 77
-9 16 -21 20 -62 19 -27 -1 -51 -4 -52 -7z"/>
<path d="M1386 2748 c-12 -16 -16 -47 -16 -106 0 -105 8 -122 60 -122 52 0 60
17 60 129 0 68 -4 93 -16 105 -23 24 -70 20 -88 -6z m62 -106 c3 -87 2 -92
-18 -92 -19 0 -20 6 -20 88 0 49 3 92 7 96 19 19 28 -8 31 -92z"/>
<path d="M1556 2754 c-9 -9 -16 -32 -16 -55 0 -34 5 -42 35 -61 35 -23 53 -57
40 -77 -12 -21 -35 -11 -35 14 0 18 -5 25 -20 25 -15 0 -20 -7 -20 -29 0 -36
21 -54 62 -53 39 1 48 10 50 53 2 59 -1 65 -37 85 -30 16 -35 24 -33 48 4 41
27 45 34 6 4 -17 12 -29 18 -27 16 5 20 56 5 73 -15 19 -64 18 -83 -2z"/>
<path d="M1955 2760 c-4 -6 -2 -16 3 -23 5 -7 12 -46 15 -88 9 -106 20 -131
55 -127 23 3 29 10 39 53 7 28 14 81 15 120 3 57 0 70 -13 73 -13 2 -17 -12
-23 -84 -3 -47 -10 -93 -15 -102 -9 -15 -12 2 -27 131 -5 46 -10 57 -25 57
-10 0 -21 -5 -24 -10z"/>
<path d="M2156 2754 c-14 -13 -16 -34 -14 -117 3 -99 4 -102 30 -114 37 -18
74 -3 81 34 5 27 -6 53 -24 53 -4 0 -9 -12 -11 -27 -2 -17 -10 -29 -20 -31
-14 -3 -18 4 -18 30 0 25 7 38 30 53 42 28 58 70 39 104 -18 32 -68 40 -93 15z
m61 -30 c7 -18 -12 -64 -27 -64 -5 0 -10 18 -10 40 0 29 4 40 15 40 9 0 18 -7
22 -16z"/>
<path d="M2307 2761 c-1 -3 0 -58 3 -121 5 -105 7 -115 25 -118 19 -3 20 3 20
100 0 90 2 103 18 106 15 3 17 -7 17 -98 0 -105 7 -121 47 -106 12 5 14 9 5
18 -7 7 -12 46 -12 101 0 115 -6 126 -71 125 -27 -1 -51 -4 -52 -7z"/>
<path d="M2666 2754 c-9 -9 -16 -32 -16 -55 0 -34 5 -42 35 -61 35 -23 53 -57
40 -77 -12 -21 -35 -11 -35 14 0 19 -5 25 -21 25 -32 0 -23 -61 11 -77 56 -26
91 8 83 78 -4 30 -12 41 -39 55 -29 16 -34 24 -32 49 4 39 32 41 36 2 2 -16 8
-27 15 -24 17 5 21 55 6 73 -15 19 -64 18 -83 -2z"/>
<path d="M3186 2754 c-21 -21 -23 -191 -2 -219 15 -21 67 -25 90 -5 21 16 21
66 0 74 -23 9 -24 8 -24 -25 0 -42 -34 -37 -38 6 -2 25 3 34 28 48 71 42 64
137 -10 137 -16 0 -36 -7 -44 -16z m62 -43 c4 -22 -13 -51 -29 -51 -11 0 -12
63 -2 74 12 12 28 0 31 -23z"/>
<path d="M3352 2758 c-19 -19 -16 -212 3 -228 35 -29 116 -4 95 30 -7 12 -12
12 -22 2 -6 -6 -20 -12 -30 -12 -16 0 -18 10 -18 95 0 76 3 95 14 95 9 0 16
-12 18 -32 2 -21 8 -33 18 -33 19 0 26 61 9 81 -14 17 -70 19 -87 2z"/>
<path d="M3516 2754 c-21 -21 -23 -191 -2 -219 16 -22 67 -25 91 -5 22 18 16
74 -7 78 -14 3 -18 -3 -18 -27 0 -24 -4 -31 -20 -31 -16 0 -20 7 -20 35 0 19
4 35 9 35 5 0 23 13 40 29 53 49 36 121 -29 121 -16 0 -36 -7 -44 -16z m62
-43 c4 -22 -13 -51 -29 -51 -11 0 -12 63 -2 74 12 12 28 0 31 -23z"/>
<path d="M3663 2756 c-4 -5 -1 -12 5 -14 9 -3 12 -47 12 -154 0 -137 1 -149
18 -146 12 2 18 14 20 41 2 28 8 37 22 37 40 0 50 26 50 129 0 67 -4 102 -12
108 -17 13 -107 13 -115 -1z m87 -111 c0 -76 -10 -109 -27 -91 -10 9 -9 160 0
173 19 26 27 0 27 -82z"/>
<path d="M4000 2750 c0 -11 5 -20 10 -20 6 0 10 -42 10 -105 l0 -105 26 0 c21
0 25 3 18 18 -4 9 -9 60 -10 112 -2 126 -1 120 -29 120 -18 0 -25 -5 -25 -20z"/>
<path d="M4137 2757 c-15 -11 -17 -27 -15 -122 l3 -110 40 -3 c56 -5 65 12 65
124 0 71 -4 96 -16 108 -19 19 -54 21 -77 3z m51 -116 c3 -84 1 -92 -15 -89
-15 3 -19 15 -21 73 -3 80 4 118 21 112 8 -2 13 -35 15 -96z"/>
<path d="M4284 2746 c3 -11 6 -67 6 -123 0 -96 1 -103 20 -103 19 0 20 7 20
104 0 80 3 105 14 109 8 3 17 3 20 0 3 -4 6 -53 6 -110 0 -100 1 -103 23 -103
22 0 22 2 19 102 -5 142 -8 146 -77 146 -53 -1 -56 -2 -51 -22z"/>
<path d="M4477 2752 c-34 -37 -20 -92 29 -123 26 -16 34 -27 34 -50 0 -22 -5
-29 -20 -29 -15 0 -20 7 -20 25 0 18 -5 25 -20 25 -15 0 -20 -7 -20 -29 0 -35
22 -54 62 -54 37 0 58 24 58 68 0 35 -12 54 -53 79 -22 13 -27 24 -25 44 4 36
32 36 36 -1 4 -37 36 -33 40 4 6 52 -65 81 -101 41z"/>
<path d="M1606 1544 c-3 -9 -6 -37 -6 -64 0 -55 20 -81 45 -60 8 7 15 18 15
24 0 6 -7 2 -16 -9 -21 -28 -30 -9 -27 64 2 63 -1 72 -11 45z"/>
<path d="M1636 1553 c7 -4 14 -17 17 -28 5 -16 5 -15 4 4 -1 14 -9 26 -17 28
-10 3 -11 2 -4 -4z"/>
<path d="M1682 1483 c0 -43 3 -63 5 -45 6 42 33 44 33 2 0 -16 3 -30 8 -30 4
0 6 34 4 75 -2 41 -7 75 -11 75 -3 0 -5 -18 -3 -40 3 -33 1 -40 -13 -40 -14 0
-16 7 -13 40 2 22 0 40 -4 40 -5 0 -7 -35 -6 -77z"/>
<path d="M1759 1483 c3 -43 7 -66 9 -50 4 31 22 37 22 8 0 -11 3 -22 8 -24 4
-3 8 28 10 69 l3 74 -28 0 -28 0 4 -77z m39 30 c-4 -52 -28 -56 -28 -4 0 30 4
41 16 41 11 0 14 -9 12 -37z"/>
<path d="M1842 1488 c-2 -75 -1 -78 21 -77 16 1 17 3 5 6 -14 3 -18 19 -21 76
l-3 72 -2 -77z"/>
<path d="M1902 1488 c3 -65 5 -73 23 -73 18 0 20 8 23 73 3 72 3 72 -23 72
-26 0 -26 0 -23 -72z m36 0 c-2 -38 -8 -63 -15 -66 -10 -3 -13 14 -13 62 0 53
3 66 15 66 13 0 15 -11 13 -62z"/>
<path d="M1978 1554 c-15 -14 -8 -44 15 -64 24 -21 29 -61 9 -68 -7 -2 -16 7
-21 20 -6 12 -10 16 -10 8 -1 -29 17 -46 36 -34 26 16 28 53 4 70 -11 8 -21
28 -23 45 -2 17 -6 27 -10 23z"/>
<path d="M2009 1542 c6 -10 7 -22 4 -26 -3 -3 -1 -6 6 -6 16 0 10 42 -7 48
-11 3 -12 0 -3 -16z"/>
</g>
</svg>
